<svg xmlns="http://www.w3.org/2000/svg" width="256" height="256"><path fill-opacity=".016" d="M0 128.004v128.004l128.25-.254 128.25-.254.254-127.75L257.008 0H0v128.004m.485.496c0 70.4.119 99.053.265 63.672.146-35.38.146-92.98 0-128C.604 29.153.485 58.1.485 128.5" fill="#1976D2" fill-rule="evenodd"/><path fill-opacity=".183" d="M118.594 23.208c-11.453 6.721-12.106 21.094-1.324 29.144 3.545 2.647 12.423 3.38 16.316 1.348 4.669-2.438 8.2-6.843 9.553-11.917 1.117-4.186 1.039-5.245-.69-9.396-4.153-9.97-15.238-14.235-23.855-9.179m2.483 8.381c-2.47 2.078-3.077 3.36-3.077 6.5 0 9.439 12.108 12.284 16.255 3.818 2.231-4.554.862-9.278-3.314-11.437-4.051-2.095-6.355-1.834-9.864 1.119M120 74.881v12.882l-4.623 1.164c-21.944 5.525-37.228 28.649-33.562 50.777 2.478 14.956 11.951 27.418 25.905 34.081 7.518 3.59 8.15 3.715 18.78 3.715 10.331 0 11.416-.197 17.847-3.243 3.766-1.784 8.604-4.634 10.75-6.334l3.903-3.091V178H172.033l-.266-26.25-.267-26.25H132.999v-6.75L133 112h24v-12h-24V84h39V71h-39v-9h-13v12.881m-7.671 28.546c-6.221 2.897-12.275 8.896-15.475 15.337-1.979 3.981-2.352 6.25-2.339 14.236.013 8.35.339 10.119 2.694 14.608 3.531 6.728 11.482 13.784 18.071 16.034 6.555 2.239 15.663 2.222 22.44-.04 9.126-3.047 18.343-13.244 20.656-22.852l.662-2.75H120v-18.5c0-14.139-.295-18.498-1.25-18.49-.687.005-3.577 1.093-6.421 2.417M176 220.5V231h5v-21h-5v10.5m39.363-9.003c-.346.901-.167 2.099.398 2.664 1.63 1.63 4.739.531 4.739-1.675 0-2.543-4.228-3.358-5.137-.989M0 221v10h7.5c4.333 0 7.5-.422 7.5-1 0-.556-2.667-1-6-1H3v-7h5c2.75 0 5-.45 5-1s-2.25-1-5-1c-4.87 0-5-.077-5-2.95 0-2.885.126-2.957 5.671-3.25 3.418-.181 5.835-.797 6.083-1.55.306-.926-1.551-1.25-7.171-1.25H0v10m134 0v10h5v-20h-5v10m15.603-5.167c-.283.459-1.885.632-3.559.387l-3.044-.447v7.614c0 7.411.065 7.613 2.448 7.613 2.247 0 2.472-.429 2.75-5.241.233-4.05.699-5.316 2.052-5.573 1.497-.285 1.75.473 1.75 5.241 0 5.278.132 5.573 2.5 5.573 2.408 0 2.5-.237 2.5-6.443 0-5.525-.317-6.666-2.223-8-2.461-1.724-4.389-1.994-5.174-.724m14.397.461c-5.117 2.588-6.083 9.511-1.86 13.332 2.31 2.091 7.997 2.335 10.279.441 2.328-1.932.201-4.141-3.312-3.438-3.355.671-5.569-1.597-4.586-4.695.574-1.81 1.229-2.074 4.021-1.621 4.524.734 6.48-1.483 3.283-3.723-2.726-1.909-4.503-1.976-7.825-.296m40.338-.295c-2.406.97-3.7 3.893-2.783 6.284.33.861 2.253 2.292 4.273 3.18l3.672 1.614-3.802-.484c-2.827-.36-3.955-.087-4.396 1.062-.791 2.062 1.395 3.311 5.826 3.33 6.656.028 8.153-6.261 2.122-8.915-3.779-1.664-4.449-3.477-.768-2.077 2.004.762 2.675.583 3.485-.932.85-1.587.521-2.044-2.131-2.968-1.724-.601-3.18-1.064-3.235-1.03-.056.035-1.074.456-2.263.936m40.162.156c-3.064 1.676-4.5 3.942-4.5 7.102 0 4.087 1.501 6.373 4.979 7.586 5.754 2.006 11.021-1.433 11.021-7.195 0-3.839-.995-5.594-4.072-7.185-3.337-1.726-4.731-1.784-7.428-.308M18 223.658c0 5.747.315 7.342 1.45 7.342 1.064 0 1.53-1.531 1.75-5.75.295-5.656.349-5.75 3.3-5.75 2.951 0 3.005.094 3.3 5.75.215 4.119.697 5.75 1.7 5.75 1.003 0 1.485-1.631 1.7-5.75.271-5.198.529-5.782 2.687-6.087 3.099-.439 4.079 1.256 4.098 7.087.011 3.549.394 4.75 1.515 4.75 1.91 0 2.058-8.334.212-12-1.416-2.813-5.946-3.881-8.272-1.95-1.004.833-1.818.881-2.69.158-.687-.57-3.387-1.003-6-.964l-4.75.073v7.341m26.667-6.991c-.367.366-.667 4.641-.667 9.5 0 7.185.28 8.833 1.5 8.833 1.021 0 1.5-1.022 1.5-3.2 0-2.489.267-2.933 1.2-2 1.791 1.791 7.271 1.455 8.993-.55 2.503-2.914 2.857-5.195 1.363-8.77-1.63-3.901-5.316-5.366-9.13-3.628-1.495.681-2.426.73-2.426.127 0-1.12-1.345-1.3-2.333-.312M63 223.5c0 5.88.313 7.5 1.448 7.5 1.041 0 1.532-1.473 1.75-5.25.249-4.328.697-5.423 2.552-6.237 2.422-1.063 3.085-3.513.95-3.513-.715 0-1.789.489-2.387 1.087-.783.783-1.275.783-1.759 0-1.675-2.71-2.554-.503-2.554 6.413m13.229-6.831c-2.109.849-4.318 6.128-3.66 8.749 1.289 5.137 8.071 7.786 11.867 4.635 2.344-1.945.923-3.015-2.36-1.776-2.243.847-3.28.798-4.496-.21-2.758-2.289-1.736-3.067 4.028-3.067h5.609l-.687-2.75c-1.31-5.25-5.492-7.516-10.301-5.581M91 218c-4.249 4.249-1.149 12 4.8 12 1.54 0 3.34-.54 4-1.2.933-.933 1.2-.849 1.2.378 0 2.814-2.715 4.123-7.098 3.422-3.084-.493-3.983-.34-3.666.623.242.735 2.448 1.408 5.198 1.586 7.243.469 8.566-1.225 8.566-10.964 0-6.307-.294-7.845-1.5-7.845-.825 0-1.5.54-1.5 1.2 0 .933-.267.933-1.2 0-1.851-1.851-6.578-1.422-8.8.8m18.455.455c-3.087 3.086-3.127 6.652-.113 10.156 1.673 1.945 3.288 2.722 5.658 2.722 3.926 0 8-4.04 8-7.934 0-3.511-4.204-7.399-8-7.399-1.948 0-3.998.907-5.545 2.455M184 221.809c0 3.251.585 6.609 1.328 7.625 1.279 1.749 2.189 1.869 9.922 1.304l3.25-.238.294-7.25c.291-7.177.268-7.25-2.25-7.25-2.324 0-2.545.368-2.559 4.25-.019 5.05-1.187 7.27-3.384 6.427-1.174-.451-1.601-1.955-1.601-5.646 0-4.7-.165-5.031-2.5-5.031-2.38 0-2.5.279-2.5 5.809m32 1.761c0 7.277.087 7.557 2.25 7.25 2.065-.294 2.274-.917 2.544-7.57.291-7.177.268-7.25-2.25-7.25-2.501 0-2.544.127-2.544 7.57m7-6.581c0 .545 1.173 3.92 2.606 7.5 2.145 5.357 3.012 6.511 4.894 6.511 1.882 0 2.749-1.154 4.894-6.511 1.433-3.58 2.606-6.955 2.606-7.5 0-1.462-4.992-1.204-5.045.261-.025.688-.635 2.6-1.356 4.25l-1.31 3-1.303-4.25c-1.048-3.419-1.76-4.25-3.644-4.25-1.288 0-2.342.445-2.342.989M77.2 219.2c-2.373 2.373-1.322 3.8 2.8 3.8 4.399 0 4.943-.837 2.171-3.345-2.172-1.966-3.352-2.074-4.971-.455m-29.165 1.734c-1.496 2.796-1.281 4.533.794 6.411 2.551 2.309 4.857 2.064 6.675-.71 2.348-3.584.52-7.635-3.444-7.635-1.932 0-3.356.684-4.025 1.934M92.5 221c-1.102 3.472.349 6 3.445 6 3.573 0 5.464-2.233 4.648-5.487-.52-2.07-1.233-2.513-4.045-2.513-2.535 0-3.577.515-4.048 2m18.566-.124c-1.527 2.854-1.324 4.581.763 6.469 2.432 2.201 4.47 2.087 6.698-.375 1.453-1.606 1.639-2.599.887-4.75-1.242-3.555-6.695-4.433-8.348-1.344m134.345.495c-1.112 2.897.021 5.129 2.603 5.129 2.096 0 2.486-.471 2.486-3 0-2.352-.487-3.069-2.254-3.32-1.323-.188-2.495.305-2.835 1.191" fill="#1976D2" fill-rule="evenodd"/><path fill-opacity=".254" d="M121.655 22.447c-10.168 3.656-14.256 13.55-9.584 23.2 5.652 11.676 23.063 11.852 28.96.292 6.768-13.266-5.717-28.403-19.376-23.492m-1.133 8.803c-1.52 1.32-2.827 3.743-3.164 5.863-.481 3.022-.103 4.141 2.311 6.842 4.131 4.624 9.45 4.715 13.456.231 3.832-4.288 3.816-8.399-.048-12.263-3.687-3.687-8.773-3.96-12.555-.673m.257 43.887l-.279 13.138-5.395 1.379c-12.467 3.187-22.68 11.661-28.674 23.788-6.196 12.536-5.907 27.864.771 40.955 7.805 15.298 28.794 25.635 45.916 22.612 7.736-1.366 17.207-5.599 22.061-9.862 1.972-1.731 3.863-3.147 4.203-3.147.34 0 .618 3.15.618 7v7h11v-52h-39.088l.294-7.25.294-7.25 12.25-.281 12.25-.281V100h-25V83h39.5V72H132V62h-10.942l-.279 13.137M112.5 102.85c-6.968 3.308-13.636 10.064-16.71 16.93-1.544 3.449-2.137 6.88-2.201 12.738-.079 7.143.27 8.748 3.203 14.708 3.585 7.286 8.6 12.262 16.072 15.948 3.79 1.869 6.278 2.286 13.636 2.286 10.118 0 14.97-1.747 22.318-8.036C153.096 153.762 159 143.277 159 139.34V137h-38v-18.5c0-14.134-.295-18.5-1.25-18.499-.687 0-3.95 1.282-7.25 2.849M.667 211.667c-.367.366-.667 4.866-.667 10V231h7.5c4.333 0 7.5-.422 7.5-1 0-.556-2.667-1-6-1H3v-7h5c2.75 0 5-.45 5-1s-2.25-1-5-1c-4.974 0-5-.017-5.001-3.25l-.002-3.25 5.502.343c4.509.28 5.501.055 5.501-1.25 0-1.29-1.207-1.593-6.333-1.593-3.484 0-6.634.3-7 .667M135 221c0 9.333.133 10 2 10s2-.667 2-10-.133-10-2-10-2 .667-2 10m41.214-.25c.271 9.249.402 9.766 2.536 10.07 2.206.313 2.25.12 2.25-9.75V211h-5.072l.286 9.75M216 212.5c0 .833.889 1.5 2 1.5s2-.667 2-1.5-.889-1.5-2-1.5-2 .667-2 1.5m-197.317 4.15c-.375.376-.683 3.758-.683 7.517 0 5.407.313 6.833 1.5 6.833 1.147 0 1.5-1.264 1.5-5.378 0-6.07 1.898-8.803 4.834-6.961 1.164.731 1.756 2.748 1.966 6.693.352 6.623 2.2 7.68 2.2 1.257 0-5.577 2.922-9.691 5.687-8.007 1.336.813 1.892 2.589 2.113 6.75.398 7.5 2.2 7.269 2.2-.283 0-7.978-2.836-10.835-8.009-8.066-1.3.695-2.685.636-4.508-.195-1.961-.893-3.089-.913-4.429-.076-1.128.705-2.149.771-2.742.178-.52-.52-1.253-.638-1.629-.262M45 225.3c0 5.8.402 9.7 1 9.7.55 0 1-1.44 1-3.2 0-2.489.267-2.933 1.2-2 1.87 1.87 6.587 1.413 8.857-.857 4.994-4.994-.543-14.708-6.996-12.272-2.078.784-3.203.787-3.979.011-.776-.776-1.082 1.661-1.082 8.618m18.75-8.723C62.612 217.724 62.843 231 64 231c.55 0 1-1.7 1-3.777 0-4.122 2.273-8.223 4.557-8.223.794 0 1.443-.675 1.443-1.5 0-1.898-.989-1.897-3.703.005-1.927 1.349-2.182 1.34-2.473-.09-.178-.877-.662-1.254-1.074-.838m11.424 1.737c-4.349 4.63-1.56 12.686 4.392 12.686 3.194 0 6.683-1.787 5.916-3.03-.342-.552-1.306-.472-2.377.197-2.214 1.382-6.677.391-7.463-1.658-.472-1.228.407-1.509 4.723-1.509 2.916 0 5.565-.263 5.887-.585.321-.322.124-1.906-.439-3.521-1.81-5.192-7.002-6.451-10.639-2.58m16.281.141c-3.144 3.143-3.111 5.98.105 9.196 2.519 2.519 4.337 2.7 8.699.867 1.508-.634 1.632-.403.871 1.622-.777 2.066-1.525 2.355-6.009 2.317-5.084-.042-6.573.772-3.539 1.936 3.313 1.271 8.439.586 10.418-1.393 1.616-1.616 2-3.333 2-8.941 0-6.489-1.035-9.429-2.492-7.073-.423.685-1.244.691-2.503.017-2.942-1.575-4.901-1.198-7.55 1.452m19.866-1.266c-6.929 3.35-3.982 13.811 3.891 13.811 6.74 0 9.534-8.695 4.153-12.927-2.893-2.276-4.744-2.48-8.044-.884M143 223.571c0 7.258.058 7.429 2.5 7.429 2.364 0 2.5-.3 2.5-5.5 0-4.73.265-5.5 1.893-5.5 2.285 0 3.107 1.873 3.107 7.082 0 3.251.34 3.918 2 3.918 1.791 0 2-.667 2-6.378 0-3.926-.487-6.781-1.266-7.428-.697-.578-3.847-1.051-7-1.051H143v7.428M162 218c-1.238 1.238-2 3.333-2 5.5 0 4.496 2.915 7.505 7.25 7.485 4.081-.02 6.217-1.325 5.448-3.33-.442-1.153-1.485-1.402-4.096-.978-3.192.518-3.564.322-4.2-2.21-.856-3.413 1.8-5.965 4.631-4.449 1.982 1.061 4.607-1.174 3.494-2.974-1.154-1.867-8.359-1.212-10.527.956m22.667-1.333c-1.262 1.261-.665 9.891.832 12.028 1.232 1.759 2.48 2.132 7 2.091l5.501-.049v-7.369c0-6.635-.194-7.368-1.948-7.368-1.644 0-1.995.817-2.25 5.25-.258 4.483-.594 5.25-2.302 5.25-1.708 0-2.044-.767-2.302-5.25-.245-4.255-.64-5.25-2.084-5.25-.979 0-2.081.3-2.447.667m17.957.851c-.893.894-1.624 2.198-1.624 2.898 0 1.662 2.885 4.16 5.851 5.065 1.463.447 1.996 1.072 1.413 1.655-.584.584-1.912.568-3.516-.042-2.056-.781-2.703-.653-3.197.633-.787 2.053 1.079 3.238 5.128 3.258 7.057.034 8.546-6.428 2.051-8.898-3.539-1.345-3.526-3.246.02-2.875 1.906.2 2.75-.173 2.75-1.212 0-2.198-6.79-2.567-8.876-.482M216 223.5c0 6.833.178 7.5 2 7.5s2-.667 2-7.5-.178-7.5-2-7.5-2 .667-2 7.5m7.223-6.338c.278.736 1.526 4.151 2.775 7.588 1.812 4.989 2.698 6.25 4.391 6.25 2.058 0 2.756-1.287 7.178-13.25.489-1.322.125-1.75-1.485-1.75-1.418 0-2.463.92-3.123 2.75-2.521 6.997-2.54 7.007-4.128 2.227-1.116-3.359-2.065-4.561-3.8-4.815-1.603-.234-2.158.073-1.808 1m18.951 1.152c-4.746 5.052-1.156 12.686 5.966 12.686 6.957 0 10.493-8.178 5.546-12.826-3.172-2.979-8.643-2.913-11.512.14m-193.519 1.515C45.51 223.303 47.588 229 52 229c2.414 0 5-2.623 5-5.071 0-2.213-3.35-5.929-5.345-5.929-.74 0-2.09.823-3 1.829m28 0C74.18 222.564 74.571 223 79.5 223c4.857 0 5.026-.149 3.465-3.066-1.304-2.437-4.157-2.484-6.31-.105m17.095-.749c-2.425 1.412-2.305 6.553.184 7.885 1.064.569 2.414 1.035 3 1.035 1.348 0 5.066-3.67 5.066-5 0-1.436-3.771-5.006-5.25-4.97-.687.017-2.037.489-3 1.05m17.905.749C108.348 223.482 110.361 229 115 229c4.958 0 6.889-6.564 2.777-9.443-2.879-2.017-4.1-1.963-6.122.272m133.916.742c-1.879 1.879-2.001 3.599-.371 5.229 2.62 2.62 6.8.892 6.8-2.81 0-1.103-2.894-3.99-4-3.99-.471 0-1.564.707-2.429 1.571" fill="#1976D2" fill-rule="evenodd"/><path fill-opacity=".667" d="M177 221.073c0 8.655.223 10.028 1.582 9.75 1.297-.265 1.611-2.075 1.75-10.073.15-8.684-.023-9.751-1.582-9.75-1.551 0-1.75 1.146-1.75 10.073m39-8.573c0 .833.889 1.5 2 1.5s2-.667 2-1.5-.889-1.5-2-1.5-2 .667-2 1.5M.665 221.25l.166 9.25 6.584.296c4.104.184 6.585-.099 6.585-.75 0-.612-2.492-1.046-6-1.046H2v-7h5.5c3.025 0 5.5-.45 5.5-1s-2.475-1-5.5-1H2V213.095l6.25-.355 6.25-.355-7-.193-7-.193.165 9.251m134.335.323c0 8.579.182 9.539 1.75 9.239 1.49-.285 1.793-1.705 2.038-9.573.271-8.723.173-9.239-1.75-9.239-1.909 0-2.038.608-2.038 9.573m-111.75-4.508c-3.207 1.241-2.782 1.991.729 1.289 2.567-.513 3.12-.224 4 2.09.561 1.478 1.097 4.569 1.189 6.871.144 3.575.253 3.325.75-1.713.402-4.077 1.122-6.237 2.332-6.995 3.039-1.904 5.208.435 5.56 5.995.446 7.05 2.19 8.076 2.19 1.289 0-7.72-3.457-11.36-7.86-8.276-1.824 1.277-2.381 1.28-4.365.021-1.554-.985-2.988-1.166-4.525-.571m26.261.514c-3.243 1.682-3.842 1.766-3.011.421.34-.55.141-1-.441-1-.667 0-1.059 3.332-1.059 9 0 5.333.407 9 1 9 .55 0 1-1.311 1-2.913 0-2.799.113-2.87 2.899-1.819 2.346.886 3.392.771 5.484-.6 7.25-4.75 1.762-16.05-5.872-12.089m27.804-.504c-4.676 1.739-5.641 7.69-1.86 11.47 2.764 2.765 6.68 3.203 8.545.955 1.464-1.764.662-1.925-2.133-.429-1.527.817-2.577.694-4.434-.523-4.289-2.81-3.117-4.548 3.067-4.548 4.679 0 5.5-.275 5.5-1.845 0-3.488-5.039-6.435-8.685-5.08m35.647-.265c-5.163 1.593-6.731 8.464-2.773 12.151 2.791 2.601 5.842 2.589 9.176-.034 5.881-4.625.755-14.326-6.403-12.117M144 223.5c0 6 .3 7.5 1.5 7.5 1.128 0 1.5-1.209 1.5-4.878 0-5.599 1.944-8.243 4.5-6.122.964.8 1.5 3.015 1.5 6.196 0 4.175.274 4.899 1.75 4.619 1.985-.376 2.791-5.118 1.783-10.49-.707-3.767-3.954-5.24-7.44-3.375-1.388.743-2.093.772-2.093.085 0-.569-.675-1.035-1.5-1.035-1.2 0-1.5 1.5-1.5 7.5m18.455-5.045c-1.35 1.35-2.455 3.62-2.455 5.045 0 3.125 4.095 7.5 7.02 7.5 2.92 0 6.169-1.884 5.399-3.131-.35-.567-1.756-.75-3.124-.407-3.033.761-5.295-.931-5.295-3.962 0-2.922 2.358-4.839 4.943-4.018 2.822.895 4.486-.26 2.983-2.071-1.859-2.24-6.724-1.704-9.471 1.044M185 222.521c0 5.894.229 6.626 2.374 7.603 1.71.78 2.95.773 4.439-.024 1.361-.728 2.277-.763 2.685-.103.341.552 1.268 1.003 2.061 1.003 1.127 0 1.441-1.637 1.441-7.5 0-6.833-.178-7.5-2-7.5-1.727 0-2 .667-2 4.878 0 5.758-1.859 8.12-4.394 5.585-.991-.991-1.606-3.301-1.606-6.034 0-3.27-.392-4.429-1.5-4.429-1.18 0-1.5 1.391-1.5 6.521m18.2-5.321c-2.451 2.451-1.4 5.819 2.3 7.364 4.61 1.927 4.621 3.88.018 3.133-4.239-.688-5.646.923-2.013 2.305 3.8 1.445 5.245 1.248 7.518-1.025 2.528-2.528 1.407-5.142-2.985-6.961-3.925-1.626-3.921-3.373.006-2.796 3.318.487 5.039-.92 2.834-2.316-1.995-1.264-6.283-1.099-7.678.296m13.006 6.039c.242 5.961.603 7.299 2.044 7.574 1.542.294 1.75-.566 1.75-7.24 0-6.96-.165-7.573-2.044-7.573-1.897 0-2.023.519-1.75 7.239m9.409-.53c1.389 3.689 2.745 7.064 3.014 7.5.975 1.577 3.441.739 4.294-1.459.48-1.238 1.812-4.613 2.96-7.5 2.028-5.099 2.033-5.25.183-5.25-1.398 0-2.347 1.331-3.566 5-.913 2.75-1.813 5-2 5-.187 0-1.087-2.25-2-5-1.206-3.632-2.174-5-3.536-5-1.768 0-1.731.381.651 6.709m16.84-4.254c-1.35 1.35-2.455 3.62-2.455 5.045 0 1.425 1.105 3.695 2.455 5.045 4.63 4.631 11.894 2.295 13.154-4.229.496-2.568.118-3.68-1.952-5.75-3.36-3.36-7.908-3.406-11.202-.111M19.177 224l.117 7.5.691-6c.379-3.3.327-6.675-.117-7.5-.464-.862-.758 1.69-.691 6M63 223.441c0 3.543.45 6.719 1 7.059.608.376 1-1.093 1-3.75 0-4.568 1.149-6.762 4.5-8.595 1.261-.69 1.475-1.105.579-1.125-.782-.016-2.244.715-3.25 1.625-1.702 1.54-1.829 1.54-1.829 0 0-.91-.45-1.655-1-1.655-.563 0-1 2.814-1 6.441m28.2-5.241c-.66.66-1.2 2.82-1.2 4.8 0 4.543 1.457 6 6 6 1.98 0 4.14-.54 4.8-1.2.933-.933 1.2-.716 1.2.977 0 1.241-1.118 2.909-2.601 3.881-2.107 1.381-3.151 1.497-5.5.61-1.594-.602-2.899-.732-2.899-.288 0 1.12 2.641 2.02 5.927 2.02 4.612 0 6.075-2.676 6.058-11.079-.01-4.531-.35-6.893-.875-6.064-.6.946-1.067 1.021-1.544.25-.917-1.484-7.858-1.415-9.366.093m-42.634 1.128c-2.089 1.528-2.398 5.965-.569 8.169 1.495 1.801 6.126 1.98 7.803.303 1.699-1.699 1.488-6.369-.371-8.229-1.921-1.92-4.446-2.01-6.863-.243M76.2 219.2c-2.47 2.47-1.315 3.8 3.3 3.8 3.026 0 4.5-.426 4.5-1.3 0-1.947-2.131-3.7-4.5-3.7-1.155 0-2.64.54-3.3 1.2m16.455.629c-2.151 2.377-2.095 4.462.174 6.516 2.399 2.171 5.458 2.1 7.516-.174 2.151-2.377 2.095-4.462-.174-6.516-2.399-2.171-5.458-2.1-7.516.174m18.623-.579c-2.873 3.713-2.139 7.684 1.812 9.798 1.58.846 2.597.732 4.477-.5 3.134-2.054 3.443-7.937.499-9.513-2.615-1.399-5.613-1.304-6.788.215m133.768 1.195c-2.845 3.427 1.078 9.221 4.704 6.948 3.568-2.237 2.285-8.393-1.75-8.393-.965 0-2.295.65-2.954 1.445" fill="#1976D2" fill-rule="evenodd"/></svg>