<svg xmlns="http://www.w3.org/2000/svg" width="256" height="256"><path fill-opacity=".016" d="M0 128.004v128.004l128.25-.254 128.25-.254.254-127.75L257.008 0H0v128.004m.485.496c0 70.4.119 99.053.265 63.672.146-35.38.146-92.98 0-128C.604 29.153.485 58.1.485 128.5" fill="#1976D2" fill-rule="evenodd"/><path fill-opacity=".131" d="M119.994.875c-5.217 1.71-8.897 4.208-12.899 8.754-15.73 17.87-2.992 45.739 20.905 45.739 11.799 0 21.828-6.948 25.956-17.981 3.59-9.593 1.915-19.673-4.517-27.188C143.756 3.56 138.084.743 129.644.37c-3.929-.175-8.272.053-9.65.505M121 14.951c-6.672 3.551-9.273 11.382-6.137 18.473 6.391 14.447 27.445 9.857 27.465-5.988.007-5.445-2.905-10.053-7.872-12.457-5.045-2.443-8.904-2.451-13.456-.028m-3 72.494v21.517l-2.75.569c-37.942 7.853-63.013 39.487-60.967 76.928 1.508 27.595 16.79 50.347 42.071 62.634 11.568 5.622 20.321 7.28 35.029 6.636 18.707-.82 33.455-6.792 45.867-18.575l3.75-3.56V256h21.021l-.26-42.75-.261-42.75-31.75-.264-31.75-.264V148h40v-20h-40v-26h64V82h-63.916l-.292-7.75-.292-7.75-9.75-.286-9.75-.286v21.517m-7.029 43.997c-16.543 6.097-28.616 18.25-34.141 34.368-3.231 9.427-3.231 23.953 0 33.38 12.96 37.812 60.369 49.159 88.71 21.234 6.542-6.446 12.591-17.07 14.334-25.174l.913-4.25H118v-30.5c0-34.05.533-31.846-7.029-29.058" fill="#1976D2" fill-rule="evenodd"/><path fill-opacity=".078" d="M119.703 1.381C106.74 6.214 98.718 18.809 100.639 31.31c2.806 18.256 22.499 29.051 38.861 21.303C165.213 40.436 157.911 2.16 129.529.35c-3.673-.235-7.513.168-9.826 1.031m.195 13.889c-6.703 4.477-8.844 13.574-4.648 19.74 3.662 5.38 7.11 7.375 12.75 7.375 14.704 0 20.241-18.78 8.001-27.135-4.485-3.061-11.504-3.053-16.103.02M118 88.5V110l-2.75.013c-4.079.02-18.492 5.294-24.957 9.132-24.43 14.501-39.128 44.269-35.46 71.815 2.256 16.942 8.789 30.612 20.418 42.723 27.49 28.628 72.826 29.732 102.96 2.507l3.789-3.423V256h19v-85h-63v-23h40.072l-.286-9.75-.286-9.75-19.75-.271-19.75-.271V102h64V82h-64V67h-20v21.5m-10.333 43.946c-14.426 5.931-25.393 17.337-30.823 32.054-3.197 8.664-3.197 27.336 0 36 5.466 14.815 17.423 26.902 32.375 32.726 7.56 2.944 24.342 3.625 32.306 1.31 13.387-3.892 23.967-11.531 31.414-22.682 3.603-5.397 8.061-16.71 8.061-20.459 0-1.164-5.224-1.395-31.5-1.395H118v-60l-2.25.024c-1.237.013-4.875 1.103-8.083 2.422" fill="#1976D2" fill-rule="evenodd"/><path fill-opacity=".219" d="M122.5.976c-12.714 3.269-21.469 13.9-21.49 26.096-.02 11.079 4.691 19.231 14.134 24.461 4.602 2.549 6.412 2.967 12.856 2.967 6.458 0 8.256-.417 12.939-3 8.95-4.936 13.858-13.364 13.975-24 .131-11.859-8.05-22.591-19.717-25.865-6.274-1.76-8.054-1.853-12.697-.659m.975 12.053c-1.664.502-4.56 2.495-6.435 4.43-2.915 3.007-3.469 4.357-3.814 9.28-.336 4.81-.017 6.322 1.935 9.159 6.334 9.204 19.222 9.319 25.4.227 7.759-11.419-3.833-27.088-17.086-23.096M118 88.317v21.317l-7.414 1.748c-32.689 7.707-55.78 37.147-55.78 71.118 0 57.436 62.735 92.246 111.694 61.974 3.85-2.38 8.551-5.936 10.446-7.901 1.896-1.965 3.808-3.573 4.25-3.573.442 0 .804 5.175.804 11.5V256h19v-85h-64v-23h41v-19h-41v-26.972l32.25-.264 32.25-.264.287-9.236.288-9.236-32.288-.264L137.5 82.5l-.292-7.75-.292-7.75H118v21.317m-8 42.968c-3.575 1.228-9.082 3.956-12.237 6.062-29.038 19.385-32.352 60.772-6.787 84.752 9.597 9.003 24.2 14.866 37.024 14.866 17.379 0 35.912-10.368 45.52-25.465 3.675-5.775 7.48-15.459 7.48-19.038V190h-63v-30.5c0-16.775-.338-30.488-.75-30.474-.412.014-3.675 1.03-7.25 2.259" fill="#1976D2" fill-rule="evenodd"/></svg>