<svg xmlns="http://www.w3.org/2000/svg" width="1240" height="1240"><path d="M798.239 2.335c-7.95 2.883-13.455 10.177-16.352 21.665-1.776 7.041-1.579 29.666 1.077 123.807l2.012 71.306-2.486 4.907c-1.367 2.698-5.895 12.91-10.061 22.693-10.307 24.203-17.462 37.654-25.115 47.22-12.039 15.046-27.273 24.542-50.551 31.51-50.522 15.124-94.945 12.085-137.714-9.418C519.917 296.35 489.307 266.524 430.737 191c-8.317-10.725-22.628-29.175-31.801-41-16.752-21.594-24.661-30.184-29.474-32.014-8.984-3.416-19.462 2.997-19.462 11.913 0 1.649 1.069 6.508 2.375 10.799 1.306 4.291 3.841 13.877 5.633 21.302 10.084 41.776 29.577 83.802 56.361 121.513 12.281 17.291 26.358 33.891 46.462 54.788C504.885 384.092 533.183 422.78 556.43 469c22.667 45.068 35.329 86.918 41.75 138 2.087 16.603 1.784 75.788-.479 93.5-5.693 44.566-16.512 87.955-32.611 130.79-9.83 26.157-20.019 49.956-43.286 101.105-22.077 48.534-29.969 66.576-38.977 89.105-3.298 8.25-8.251 18.913-11.005 23.696-8.314 14.436-8.378 20.504-.293 27.62 8.313 7.318 17.129 7.688 29.721 1.249C566.357 1040.768 606.632 986.64 696.992 811c29.108-56.581 31.457-60.974 32.432-60.671 1.727.536 4.618 11.129 5.643 20.668.561 5.227 2.341 13.553 3.955 18.503 3.873 11.875 6.491 23.347 8.672 38 2.539 17.054 2.529 75.384-.018 100.5-5.639 55.624-15.009 108.971-34.691 197.5-15.355 69.073-17.586 81.928-16.826 96.972.601 11.914 5.44 16.799 17.142 17.307 6.491.282 7.704.017 12.332-2.687 5.546-3.24 10.876-9.036 19.86-21.592 8.161-11.407 11.084-17.762 15.073-32.771 5.355-20.152 8.829-30.907 19.097-59.124 17.592-48.346 23.673-69.314 26.855-92.605 1.039-7.611 6.587-32.057 14.184-62.5 42.924-172.02 53.279-227.781 56.825-306 .349-7.7 1.475-19.85 2.502-27 4.649-32.363 8.237-73.408 10.051-115 1.346-30.854.717-136.921-1.017-171.5-5.719-114.038-7.415-136.751-13.185-176.5-7.094-48.873-19.552-95.791-35.637-134.211-9.094-21.723-15.768-31.272-24.741-35.403-4.528-2.085-12.343-2.335-17.261-.551M628.5 83.668c-26.831 2.452-51.75 18.419-65.684 42.087-11.151 18.94-15.686 38.645-14.443 62.745 2.393 46.369 24.274 77.18 63.339 89.188 8.126 2.498 10.144 2.705 26.788 2.751 20.139.056 25.397-.907 38.114-6.984 14.693-7.021 25.913-17.999 34.307-33.568 13.178-24.442 17.215-59.854 9.98-87.542-8.744-33.46-35.591-60.221-66.901-66.684-8.233-1.699-19.273-2.562-25.5-1.993" fill="undefined" fill-rule="evenodd"/></svg>