<svg xmlns="http://www.w3.org/2000/svg" width="1024" height="1024"><path d="M499.347 137.095c-20.881 3.488-40.093 20.271-46.256 40.405-10.041 32.803 9.513 67.329 42.522 75.083 9.255 2.174 24.511 1.453 33.11-1.564 16.609-5.829 30.348-19.628 36.427-36.587 2.651-7.397 3.608-23.462 1.89-31.737-.66-3.181-3.035-9.476-5.278-13.989-11.4-22.937-36.933-35.869-62.415-31.611M501 163.876c-9.527 3.135-16.864 9.473-20.879 18.038-3.815 8.135-3.749 19.288.159 27.247 11.866 24.162 46.01 24.278 57.865.195 10.282-20.885-4.093-44.947-27.472-45.985-3.945-.175-8.298.052-9.673.505m-13 161.105v45.981l-2.25.451c-20.931 4.194-34.72 8.56-47.86 15.154-29.121 14.614-56.376 42.241-70.728 71.697-5.544 11.376-11.489 29.64-13.749 42.236-2.459 13.705-2.463 40.256-.008 54 5.833 32.662 20.534 60.584 44.525 84.566C428.39 669.517 465.829 685 509 685c41.542 0 79.291-15.054 108.75-43.369l7.25-6.969V685h42V503H529.965l.268-24.75.267-24.75 42.75-.261 42.75-.26V412h-86v-58h138v-41H530v-34h-42v45.981m-7.67 90.067c-38.055 9.665-69.635 39.229-81.662 76.452-4.616 14.285-5.961 24.395-5.387 40.5.662 18.608 3.496 29.871 11.698 46.5 6.967 14.125 12.908 22.26 23.978 32.837 50.565 48.309 130.832 41.521 173.153-14.643 9.769-12.964 19.812-36.221 21.049-48.742l.341-3.452-67.743-.257-67.743-.257-.257-65.379-.257-65.38-7.17 1.821m204.337 385.619c-.367.366-.667 16.341-.667 35.5V871h15v-71h-6.833c-3.759 0-7.134.3-7.5.667M822 807v7h16v-14h-16v7m-755.316-3.351c-.376.377-.684 15.684-.684 34.018V871h50v-5.959l-20.75-.271-20.75-.27-.281-12.25-.281-12.25H111v-5.955l-18.25-.272-18.25-.273-.282-11.75-.281-11.75h42.19l-.314-3.25-.313-3.25-24.066-.267c-13.236-.147-24.374.04-24.75.416M538 836.956V871H553.027l-.264-33.75-.263-33.75-7.25-.294-7.25-.294v34.044m53.255-17.467c-1.785.776-4.372 2.538-5.75 3.915L583 825.909V819h-15v52h15v-16.066c0-19.752 1.227-22.87 9-22.87 7.665 0 9 3.485 9 23.501V871h15l-.006-18.25c-.003-10.038-.47-19.924-1.038-21.969a17.334 17.334 0 00-23.701-11.292m52.714.047c-17.751 5.472-23.982 29.468-11.493 44.263 1.531 1.815 5.088 4.49 7.904 5.946 4.193 2.167 6.477 2.648 12.62 2.655 8.189.01 12.203-1.399 18.075-6.349l3.425-2.887-3.953-4.082c-2.174-2.245-4.355-4.082-4.846-4.082-.491 0-2.22.946-3.843 2.101-3.956 2.817-9.77 3.513-13.448 1.611-4.155-2.149-6.061-4.601-7.356-9.462-3.447-12.948 8.9-22.842 19.516-15.638 4.425 3.003 5.113 2.775 10.194-3.38l3.43-4.153-4.813-3.052c-8.186-5.192-16.285-6.304-25.412-3.491m141.716-.597c-13.821 2.779-18.574 20.146-7.615 27.823 1.297.908 6.199 3.028 10.894 4.71 6.817 2.443 8.599 3.496 8.847 5.226.721 5.029-7.826 5.409-17.081.76-2.692-1.352-5.063-2.458-5.27-2.458-1.015 0-5.529 9.079-4.967 9.989.357.577 2.979 2.245 5.828 3.707 4.096 2.103 6.956 2.74 13.679 3.051 7.407.342 9.071.094 12.941-1.928 6.458-3.372 8.483-6.647 8.524-13.788.032-5.41-.259-6.219-3.414-9.476-1.979-2.043-5.813-4.42-9-5.579-11.201-4.075-13.051-5.146-13.051-7.56 0-4.179 7.292-4.348 15.128-.351l3.721 1.899 2.576-4.608c1.416-2.534 2.575-5.026 2.575-5.537 0-1.567-10.206-5.613-15.5-6.144-2.75-.277-6.717-.157-8.815.264m140.224.55c-5.632 1.814-13.244 8.343-16.183 13.883-3.103 5.845-3.119 18.382-.031 24.196 2.618 4.93 8.91 10.787 14.033 13.062 5.971 2.651 17.618 2.382 23.63-.547 10.301-5.017 15.767-13.54 15.767-24.583 0-15.236-10.387-26.058-25.973-27.061-4.249-.273-8.31.106-11.243 1.05M713 839.662c0 20.159.06 20.765 2.466 24.87 3.006 5.129 7.547 7.468 14.501 7.468 5.692 0 8.165-.968 12.283-4.809l2.75-2.565V871h15v-52.088l-7.25.294-7.25.294-.275 16.949c-.297 18.272-.675 19.615-6.119 21.696-3.185 1.217-8.767-.662-10.318-3.475-.74-1.342-1.353-8.559-1.607-18.92l-.412-16.75H713v20.662m110 5.294V871h15.034l-.267-25.75-.267-25.75-7.25-.294-7.25-.294v26.044m24-25.091c0 .523 4.456 12.354 9.901 26.292l9.902 25.343 6.848.284 6.849.285 9.823-25.143a23378.346 23378.346 0 0010.374-26.579c.456-1.187-.812-1.385-7.323-1.141l-7.874.294-5.151 15c-2.834 8.25-5.451 15.9-5.817 17-.472 1.416-2.349-2.964-6.43-15l-5.763-17-7.67-.292c-4.379-.167-7.669.115-7.669.657m-701.778 2.254c-2.353 1.165-4.816 3.077-5.473 4.249-1.129 2.015-1.224 1.939-1.722-1.368-.483-3.211-.837-3.526-4.277-3.81l-3.75-.311V871h8v-16.766c0-14.327.266-17.261 1.827-20.172 4.089-7.625 14.475-9.219 20.545-3.154l3.128 3.126.312 18.483.312 18.483H172v-16.54c0-14.425.249-17.028 1.95-20.362 3.236-6.344 11.61-8.928 18.083-5.581 5.3 2.741 5.967 5.528 5.967 24.933V871h8v-17.851c0-10.664-.457-19.219-1.136-21.25-1.453-4.348-5.476-8.765-9.582-10.522-7.253-3.103-18.687-.492-23.251 5.31l-1.976 2.513-3.358-3.56c-1.847-1.959-4.589-4.029-6.093-4.6-4.362-1.659-10.757-1.21-15.382 1.079m94.937-.105c-2.388 1.083-5.651 3.371-7.25 5.084L230 830.212V821h-8v66h8v-24.154l3.22 3.22c1.771 1.771 4.681 3.83 6.468 4.577 4.349 1.817 13.508 1.719 18.094-.194 11.646-4.857 17.77-19.209 13.876-32.518-4.114-14.06-19.008-21.586-31.499-15.917m67.341-.688c-5.358 2.097-7.511 3.707-10.531 7.876L294 833.3V821h-7v50h6.773l.417-13.75c.351-11.613.751-14.391 2.569-17.874 2.805-5.372 7.377-9.143 12.02-9.914 6.034-1.002 6.221-1.165 6.221-5.431 0-3.536-.276-4.022-2.25-3.955-1.238.042-3.6.604-5.25 1.25m27.919.571c-2.244 1.02-5.703 3.524-7.686 5.566-9.846 10.138-8.87 30.49 1.888 39.387 3.953 3.269 11.626 6.15 16.379 6.15 4.962 0 12.627-2.966 16.564-6.41l3.936-3.442-2.087-2.134-2.088-2.133-5.297 3.293c-11.777 7.32-24.322 2.749-28.041-10.218L328.14 849H368v-4.322c0-17.708-17.227-29.754-32.581-22.781m58.329-.47c-12.143 4.333-18.481 17.829-14.294 30.434 2.939 8.85 13.238 16.156 22.739 16.133 4.402-.01 9.783-2.093 14.283-5.528l4.524-3.453-.004 5.244c-.009 12.561-11.07 19.275-25.258 15.33-3.314-.922-6.962-2.331-8.105-3.131-2.943-2.062-4.145-1.822-5.472 1.091-.639 1.401-1.161 2.776-1.161 3.055 0 .28 2.587 1.715 5.75 3.19 5.025 2.343 7.014 2.683 15.773 2.695 12.718.017 18.291-2.4 22.968-9.96l3.009-4.864.313-25.395.313-25.396-3.813.314c-3.623.298-3.829.502-4.125 4.089l-.312 3.775-3.93-3.364c-6.407-5.485-15.227-7.104-23.198-4.259m67.246-.553c-8.391 2.753-15.136 9.497-17.517 17.514-1.86 6.266-1.862 9.96-.006 16.18 3.254 10.905 12.911 17.781 25.057 17.842 6.037.03 7.794-.399 12.473-3.042 13.85-7.825 17.994-26.353 8.638-38.62-5.038-6.605-11.289-9.946-19.37-10.354-3.723-.188-7.897.028-9.275.48m-122.589 6.983c-4.218 1.963-7.815 6.6-9.395 12.108l-.87 3.035h15.93c15.367 0 15.93-.072 15.93-2.04 0-3.218-3.68-9.596-6.833-11.841-4.297-3.06-9.877-3.537-14.762-1.262m-97.905.658c-7.468 4.027-10.821 9.481-10.828 17.613-.007 7.268 3.424 13.434 9.319 16.747 3.407 1.914 5.252 2.275 9.913 1.938 10.445-.755 15.631-7.028 15.553-18.813-.05-7.64-1.872-11.689-7.028-15.622-4.488-3.423-12.417-4.296-16.929-1.863m154.771.449c-9.989 4.534-12.271 17.916-4.455 26.123 15.01 15.761 40.415-4.539 27.009-21.582-4.776-6.072-14.756-8.081-22.554-4.541m65.13-.059c-4.407 2.002-7.408 5.57-9.248 10.994-5.749 16.95 12.701 32.413 27.097 22.711 9.714-6.546 11.347-20.305 3.474-29.272-5.622-6.403-13.417-8.023-21.323-4.433m467.898 4.055c-4.673 2.849-6.612 7.249-6.071 13.775.378 4.553 1.008 5.967 3.986 8.945 8.896 8.897 22.215 2.793 22.215-10.18 0-5.988-1.955-9.631-6.733-12.544-4.078-2.486-9.316-2.485-13.397.004" fill="undefined" fill-rule="evenodd"/></svg>